<?xml version="1.0" encoding="utf-8"?>
<!-- Generator: Adobe Illustrator 25.0.1, SVG Export Plug-In . SVG Version: 6.00 Build 0)  -->
<svg version="1.1" id="Layer_1" xmlns="http://www.w3.org/2000/svg" xmlns:xlink="http://www.w3.org/1999/xlink" x="0px" y="0px"
	 viewBox="0 0 36 16" enable-background="new 0 0 36 16" xml:space="preserve">
<path fill-rule="evenodd" clip-rule="evenodd" d="M30,0H6C2.6863403,0,0,2.6862793,0,6v4c0,3.3137207,2.6863403,6,6,6h24
	c3.3137207,0,6-2.6862793,6-6V6C36,2.6862793,33.3137207,0,30,0z M35.2502441,9.9998779c0,2.8945312-2.3554688,5.25-5.25,5.25h-24
	c-2.8945312,0-5.25-2.3554688-5.25-5.25v-4c0-2.8945312,2.3554688-5.25,5.25-5.25h24c2.8945312,0,5.25,2.3554688,5.25,5.25
	V9.9998779z"/>
<rect x="-551.8322754" y="-583.0301514" fill="none" width="1440" height="1024"/>
<path d="M11.3225098,8.9764404c0,0.8515625,0.5585938,1.46875,1.5351562,1.46875s1.5351562-0.6171875,1.5351562-1.46875V5.3631592
	h0.703125v3.6601562c0,1.203125-0.8398438,2.0703125-2.2382812,2.0703125s-2.2382812-0.8671875-2.2382812-2.0703125V5.3631592
	h0.703125V8.9764404z"/>
<path d="M17.5061035,6.8670654c0.890625,0,1.484375,0.5234375,1.5117188,1.2421875h-0.6484375
	c-0.0507812-0.4257812-0.3632812-0.6875-0.8632812-0.6875c-0.4960938,0-0.8242188,0.2460938-0.8242188,0.6015625
	c0,0.28125,0.2070312,0.4726562,0.6601562,0.5820312l0.6445312,0.15625
	c0.8203125,0.1992188,1.1171875,0.5195312,1.1171875,1.1015625c0,0.7070312-0.6679688,1.2070312-1.5742188,1.2070312
	c-0.953125,0-1.546875-0.4804688-1.625-1.2421875h0.6796875c0.0820312,0.4648438,0.3945312,0.6875,0.9453125,0.6875
	s0.890625-0.234375,0.890625-0.6015625c0-0.2929688-0.1601562-0.4609375-0.625-0.5742188l-0.6445312-0.15625
	c-0.765625-0.1835938-1.1367188-0.5390625-1.1367188-1.125C16.013916,7.3631592,16.6271973,6.8670654,17.5061035,6.8670654z"/>
<path d="M23.170166,9.8358154c-0.1171875,0.7109375-0.8046875,1.234375-1.6914062,1.234375
	c-1.1640625,0-1.8710938-0.8085938-1.8710938-2.0859375c0-1.2617188,0.71875-2.1171875,1.8398438-2.1171875
	c1.0976562,0,1.7734375,0.796875,1.7734375,2.0273438v0.2578125h-2.9140625v0.0390625
	c0,0.7773438,0.4570312,1.2890625,1.1875,1.2890625c0.515625,0,0.8945312-0.2617188,1.0078125-0.6445312H23.170166z
	 M20.310791,8.6209717h2.2070312c-0.015625-0.6796875-0.4414062-1.1640625-1.0820312-1.1640625
	C20.7990723,7.4569092,20.3537598,7.9451904,20.310791,8.6209717z"/>
<path d="M23.904541,6.9373779h0.640625v0.6640625h0.015625c0.1328125-0.4492188,0.5078125-0.734375,0.984375-0.734375
	c0.1171875,0,0.21875,0.0195312,0.2734375,0.0273438v0.6601562c-0.0546875-0.0195312-0.1992188-0.0390625-0.3632812-0.0390625
	c-0.5273438,0-0.8710938,0.3789062-0.8710938,0.953125v2.53125H23.904541V6.9373779z"/>
</svg>
